<svg width="184" height="222" viewBox="0 0 184 222" fill="none" xmlns="http://www.w3.org/2000/svg">
<g clip-path="url(#clip0_1885_8389)">
<path d="M119.3 131.826C121.767 143.118 116.897 155.208 108.54 163.187C100.182 171.167 88.7925 175.41 77.3272 177.02C65.5184 178.678 52.6374 177.464 43.1311 170.258C29.653 160.041 26.7021 140.109 32.1912 124.167C37.6817 108.222 49.8811 95.5597 62.5258 84.3845C75.1705 73.2094 88.7866 62.7759 98.6053 49.0634C108.424 35.351 114.011 17.2932 108.299 1.40246C103.487 6.55039 97.3608 10.6322 92.5492 15.7801C92.3463 33.9726 82.078 48.4915 69.7009 61.8296C57.3237 75.1677 42.6182 86.2234 30.5096 99.8059C18.4023 113.387 8.74455 130.55 9.63315 148.725C10.5399 167.288 23.1048 184.488 40.0304 192.292C56.9533 200.096 77.465 198.779 93.921 190.101C110.376 181.424 122.738 165.871 128.868 148.336C130.431 143.866 131.624 139.063 130.685 134.419C129.746 129.773 124.023 132.34 119.3 131.826Z" fill="#CB6111" stroke="black" stroke-width="2" stroke-miterlimit="10"/>
<path d="M141.296 135.966C136.388 144.104 129.678 148.686 118.256 140.162C110.48 134.361 107.352 123.661 109.097 114.15C110.844 104.636 116.838 96.3116 124.211 90.0395C129.133 85.8513 134.901 82.3725 141.301 81.389C147.7 80.4055 154.791 82.2876 158.929 87.2649C150.372 85.6115 141.156 91.8871 138.323 100.098C148.563 91.3009 165.121 89.7166 176.172 97.5217C167.933 98.4946 158.389 103.793 153.49 110.462C149.295 116.17 146.195 127.842 141.296 135.966Z" fill="#9F4C0E" stroke="black" stroke-width="2" stroke-miterlimit="10"/>
</g>
<defs>
<clipPath id="clip0_1885_8389">
<rect width="184" height="222" fill="white"/>
</clipPath>
</defs>
</svg>
