<svg width="27" height="27" viewBox="0 0 27 27" fill="none" xmlns="http://www.w3.org/2000/svg">
<rect x="1" y="0.876953" width="25" height="25" rx="12.5" fill="white"/>
<rect x="1" y="0.876953" width="25" height="25" rx="12.5" stroke="black"/>
<g clip-path="url(#clip0_2154_4166)">
<path d="M9.95205 8.62699L13.599 6.54199L17.2468 8.62523L15.9095 9.39729L13.599 8.0817L11.2937 9.39817L9.95205 8.62699ZM17.2468 11.2582L15.9095 10.487L13.599 11.8026L11.2937 10.487L9.95292 11.2582V12.7979L12.2556 14.1126V16.742L13.599 17.5123L14.9397 16.7402V14.1126L17.2468 12.7961V11.2582ZM17.2468 15.4291V13.8867L15.9095 14.6579V16.1967L17.2468 15.4291ZM18.201 15.9735L15.8948 17.2864V18.8288L19.5417 16.7411V12.5746L18.201 13.3423V15.9735ZM16.8602 9.94258L18.1975 10.7138V12.2526L19.5417 11.4849V9.94258L18.201 9.1714L16.8602 9.94611V9.94258ZM12.2548 17.8458V19.3846L13.599 20.1567L14.9397 19.3846V17.8493L13.599 18.617L12.2582 17.8458H12.2548ZM9.95205 15.4255L11.2893 16.1967V14.6579L9.95205 13.8867V15.4291V15.4255ZM12.2548 9.94258L13.599 10.7138L14.9397 9.94258L13.599 9.1714L12.2582 9.94611L12.2548 9.94258ZM8.99698 10.7138L10.3377 9.94258L9.00045 9.1714L7.65712 9.94611V11.4893L8.99698 12.257V10.7138ZM8.99698 13.3423L7.65625 12.5746V16.7411L11.3041 18.8288V17.2829L9.00045 15.9708V13.3388L8.99698 13.3423Z" fill="black"/>
</g>
<defs>
<clipPath id="clip0_2154_4166">
<rect width="13" height="15" fill="white" transform="translate(7 5.87695)"/>
</clipPath>
</defs>
</svg>
