<svg width="27" height="27" viewBox="0 0 27 27" fill="none" xmlns="http://www.w3.org/2000/svg">
<g clip-path="url(#clip0_907_1608)">
<path d="M26 13.377C26 6.47339 20.4036 0.876953 13.5 0.876953C6.59644 0.876953 1 6.47339 1 13.377C1 20.2805 6.59644 25.877 13.5 25.877C20.4036 25.877 26 20.2805 26 13.377Z" fill="white"/>
<path fill-rule="evenodd" clip-rule="evenodd" d="M8.99345 8.03225C8.93198 8.04838 8.87439 8.07697 8.81946 8.11863C8.79641 8.13611 8.27525 8.65335 7.66133 9.26804C6.75693 10.1736 6.54194 10.3923 6.52842 10.4206C6.51464 10.4495 6.51172 10.4666 6.51172 10.5185C6.51172 10.5732 6.51427 10.5867 6.53116 10.6211C6.55448 10.6685 6.59397 10.7059 6.64725 10.7309C6.68655 10.7493 6.68655 10.7493 12.3197 10.7492C16.9314 10.7491 17.9604 10.7474 17.9947 10.7399C18.0178 10.7349 18.0666 10.7165 18.1031 10.6991C18.1696 10.6675 18.1696 10.6675 19.3115 9.52656C20.274 8.56479 20.4563 8.37953 20.4723 8.34711C20.4888 8.31378 20.4913 8.30023 20.4912 8.2457C20.4911 8.19068 20.4886 8.17811 20.4717 8.14581C20.448 8.10042 20.4075 8.06018 20.3636 8.03838C20.3305 8.02192 20.3305 8.02192 14.6869 8.02055C9.19426 8.01921 9.04196 8.01953 8.99345 8.03225ZM6.66207 12.1212C6.60204 12.1422 6.56273 12.1779 6.5285 12.2426C6.51468 12.2687 6.51194 12.2842 6.51184 12.3368C6.51173 12.3913 6.51426 12.4049 6.53071 12.4382C6.54673 12.4706 6.72877 12.6555 7.6916 13.6172C8.8118 14.7361 8.83456 14.7583 8.88944 14.7863C8.92021 14.8019 8.96585 14.8205 8.99085 14.8276C9.03479 14.84 9.225 14.8404 14.6764 14.8404C20.3165 14.8404 20.3165 14.8404 20.3558 14.822C20.4091 14.797 20.4486 14.7596 20.4719 14.7121C20.4888 14.6777 20.4913 14.6644 20.4912 14.6096C20.4911 14.558 20.4881 14.5404 20.4745 14.5117C20.4609 14.4832 20.2464 14.2653 19.3207 13.3396C18.4432 12.462 18.174 12.1967 18.1415 12.1774C18.1184 12.1637 18.0743 12.1436 18.0436 12.1328C17.9877 12.113 17.9877 12.113 12.3406 12.1116C7.21869 12.1103 6.69062 12.1112 6.66207 12.1212ZM9.04951 16.2569C8.98494 16.2653 8.95087 16.276 8.88944 16.3072C8.83452 16.3351 8.81257 16.3565 7.6916 17.4762C6.72877 18.4379 6.54673 18.6228 6.53071 18.6552C6.51426 18.6886 6.51174 18.7021 6.51185 18.7566C6.51197 18.8117 6.51442 18.8242 6.53132 18.8565C6.55588 18.9035 6.59369 18.9413 6.63789 18.9632C6.67256 18.9804 6.67256 18.9804 12.3302 18.9804C17.9877 18.9804 17.9877 18.9804 18.0367 18.964C18.1545 18.9243 18.0868 18.9881 19.3207 17.754C20.246 16.8285 20.4609 16.6102 20.4745 16.5817C20.4881 16.5531 20.4911 16.5354 20.4912 16.4838C20.4913 16.429 20.4888 16.4158 20.4719 16.3813C20.4486 16.3338 20.4091 16.2964 20.3558 16.2715C20.3165 16.253 20.3165 16.253 14.7044 16.2522C11.6177 16.2517 9.07302 16.2538 9.04951 16.2569Z" fill="black"/>
<path d="M26 13.377C26 6.47339 20.4036 0.876953 13.5 0.876953C6.59644 0.876953 1 6.47339 1 13.377C1 20.2805 6.59644 25.877 13.5 25.877C20.4036 25.877 26 20.2805 26 13.377Z" stroke="black"/>
</g>
<defs>
<clipPath id="clip0_907_1608">
<rect width="27" height="27" fill="white"/>
</clipPath>
</defs>
</svg>
