<svg width="25" height="24" viewBox="0 0 25 24" fill="none" xmlns="http://www.w3.org/2000/svg">
<path d="M18.5727 6.6095C18.5727 6.6095 3.63839 4.55205 3.55001 5.80597C3.46162 7.0599 1.84042 20.8782 2.7414 21.348C3.64238 21.8179 17.0037 22.7464 17.822 21.348C18.64 19.9497 18.5727 6.6095 18.5727 6.6095Z" fill="#A2D363"/>
<path d="M15.5993 3.41463C10.8988 3.44322 6.20034 3.26726 1.51894 2.82071C1.29911 2.79979 1.14914 3.02114 1.13317 3.21951C0.727446 8.23762 0.403835 13.2616 0.169466 18.2912C0.111016 19.548 0.0434406 20.8063 0.0100815 22.0637C-0.00303402 22.5562 -0.0483674 23.1348 0.262129 23.5507C0.608836 24.0152 1.12918 23.9931 1.65152 23.9979C2.87326 24.0088 4.09672 23.9775 5.31874 23.9702C7.76365 23.9554 10.2086 23.9466 12.6532 23.9348C13.7817 23.9292 14.9099 23.9239 16.0384 23.9186C17.0737 23.9136 18.2783 24.0654 19.3025 23.8711C20.9454 23.5596 20.6021 21.9343 20.6109 20.5407C20.6266 18.0265 20.6426 15.5126 20.6582 12.9984C20.6619 12.3968 19.7575 12.3959 19.7538 12.9984C19.7419 15.0289 19.7299 17.0595 19.7176 19.0903C19.7119 20.0456 19.9317 21.3596 19.6988 22.2812C19.4351 23.3235 18.0026 22.9786 17.1666 22.9878C13.2172 23.032 9.26795 23.0856 5.31846 23.1272C4.37813 23.1372 3.4378 23.1443 2.49747 23.1528C1.33219 23.1634 0.786181 23.0865 0.826954 21.7731C0.88968 19.7414 0.992324 17.7097 1.09582 15.6797C1.30795 11.5223 1.58024 7.3684 1.90442 3.21892C1.77584 3.35185 1.64724 3.48478 1.51865 3.61772C6.2049 4.0507 10.8977 4.19985 15.5991 3.99912C15.9617 3.98409 15.9654 3.41257 15.5993 3.41463Z" fill="black"/>
<path d="M25.0005 0.973902C19.5621 6.06684 14.6509 11.7611 10.3773 17.9279C8.87781 15.0633 7.37836 12.1985 5.87891 9.33401L8.22887 8.30793L11.0476 12.5773C11.0476 12.5773 16.5994 4.73097 21.5665 0L25.0005 0.973902Z" fill="black"/>
</svg>
