<svg width="32" height="32" viewBox="0 0 32 32" fill="none" xmlns="http://www.w3.org/2000/svg">
<rect width="32" height="32" rx="8" fill="white"/>
<path d="M16.0084 5.16513C11.4841 5.16513 10.1609 5.1698 9.90372 5.19113C8.97525 5.26831 8.3975 5.4145 7.76808 5.72788C7.28301 5.96875 6.90046 6.24795 6.5229 6.63934C5.8353 7.35311 5.41858 8.23124 5.26772 9.27505C5.19438 9.78179 5.17304 9.88514 5.16871 12.4735C5.16704 13.3363 5.16871 14.4718 5.16871 15.9948C5.16871 20.5155 5.17371 21.8373 5.19538 22.0941C5.27039 22.9975 5.41208 23.5659 5.71212 24.1877C6.28554 25.3779 7.38069 26.2713 8.67088 26.6047C9.11761 26.7197 9.61101 26.7831 10.2444 26.8131C10.5128 26.8247 13.2482 26.8331 15.9853 26.8331C18.7223 26.8331 21.4594 26.8297 21.7211 26.8164C22.4545 26.7819 22.8804 26.7247 23.3513 26.603C24.6498 26.268 25.725 25.3879 26.3101 24.181C26.6043 23.5743 26.7535 22.9842 26.821 22.1279C26.8356 21.9412 26.8418 18.9646 26.8418 15.992C26.8418 13.0189 26.8351 10.0478 26.8205 9.86114C26.7521 8.99101 26.6029 8.40593 26.2992 7.78751C26.05 7.28127 25.7733 6.90321 25.3716 6.51666C24.6547 5.83189 23.7779 5.41517 22.7331 5.26448C22.2268 5.1913 22.126 5.16963 19.5356 5.16513H16.0084Z" fill="url(#paint0_radial_9754_3358)"/>
<path d="M16.0084 5.16513C11.4841 5.16513 10.1609 5.1698 9.90372 5.19113C8.97525 5.26831 8.3975 5.4145 7.76808 5.72788C7.28301 5.96875 6.90046 6.24795 6.5229 6.63934C5.8353 7.35311 5.41858 8.23124 5.26772 9.27505C5.19438 9.78179 5.17304 9.88514 5.16871 12.4735C5.16704 13.3363 5.16871 14.4718 5.16871 15.9948C5.16871 20.5155 5.17371 21.8373 5.19538 22.0941C5.27039 22.9975 5.41208 23.5659 5.71212 24.1877C6.28554 25.3779 7.38069 26.2713 8.67088 26.6047C9.11761 26.7197 9.61101 26.7831 10.2444 26.8131C10.5128 26.8247 13.2482 26.8331 15.9853 26.8331C18.7223 26.8331 21.4594 26.8297 21.7211 26.8164C22.4545 26.7819 22.8804 26.7247 23.3513 26.603C24.6498 26.268 25.725 25.3879 26.3101 24.181C26.6043 23.5743 26.7535 22.9842 26.821 22.1279C26.8356 21.9412 26.8418 18.9646 26.8418 15.992C26.8418 13.0189 26.8351 10.0478 26.8205 9.86114C26.7521 8.99101 26.6029 8.40593 26.2992 7.78751C26.05 7.28127 25.7733 6.90321 25.3716 6.51666C24.6547 5.83189 23.7779 5.41517 22.7331 5.26448C22.2268 5.1913 22.126 5.16963 19.5356 5.16513H16.0084Z" fill="url(#paint1_radial_9754_3358)"/>
<path d="M16.0018 7.99884C13.8288 7.99884 13.5561 8.00834 12.7027 8.04718C11.8509 8.08619 11.2695 8.22104 10.7607 8.4189C10.2345 8.62326 9.78809 8.89664 9.34336 9.34153C8.8983 9.78626 8.62492 10.2327 8.41989 10.7587C8.22153 11.2676 8.08651 11.8492 8.04817 12.7007C8.01 13.5541 8 13.827 8 16C8 18.173 8.00967 18.4448 8.04834 19.2983C8.08751 20.1501 8.22237 20.7315 8.42006 21.2402C8.62459 21.7665 8.89796 22.2129 9.34286 22.6576C9.78742 23.1027 10.2338 23.3767 10.7597 23.5811C11.2688 23.7789 11.8504 23.9138 12.702 23.9528C13.5555 23.9916 13.828 24.0011 16.0008 24.0011C18.174 24.0011 18.4458 23.9916 19.2993 23.9528C20.1511 23.9138 20.7332 23.7789 21.2422 23.5811C21.7683 23.3767 22.214 23.1027 22.6586 22.6576C23.1037 22.2129 23.377 21.7665 23.5821 21.2404C23.7788 20.7315 23.9138 20.1499 23.9538 19.2985C23.9921 18.445 24.0021 18.173 24.0021 16C24.0021 13.827 23.9921 13.5543 23.9538 12.7008C23.9138 11.8491 23.7788 11.2676 23.5821 10.7589C23.377 10.2327 23.1037 9.78626 22.6586 9.34153C22.2135 8.89647 21.7685 8.6231 21.2417 8.4189C20.7317 8.22104 20.1499 8.08619 19.2981 8.04718C18.4447 8.00834 18.173 7.99884 15.9993 7.99884H16.0018ZM15.284 9.44071C15.4971 9.44038 15.7348 9.44071 16.0018 9.44071C18.1381 9.44071 18.3913 9.44838 19.2349 9.48672C20.0151 9.52239 20.4384 9.65274 20.7205 9.76226C21.0939 9.90728 21.3601 10.0806 21.64 10.3607C21.92 10.6407 22.0933 10.9074 22.2387 11.2808C22.3482 11.5625 22.4787 11.9859 22.5142 12.766C22.5526 13.6095 22.5609 13.8628 22.5609 15.9982C22.5609 18.1335 22.5526 18.3868 22.5142 19.2303C22.4786 20.0104 22.3482 20.4338 22.2387 20.7155C22.0937 21.0889 21.92 21.3548 21.64 21.6346C21.3599 21.9147 21.094 22.088 20.7205 22.233C20.4388 22.3431 20.0151 22.4731 19.2349 22.5087C18.3915 22.5471 18.1381 22.5554 16.0018 22.5554C13.8653 22.5554 13.6121 22.5471 12.7687 22.5087C11.9886 22.4727 11.5652 22.3424 11.283 22.2329C10.9096 22.0879 10.6429 21.9145 10.3628 21.6345C10.0828 21.3544 9.90944 21.0884 9.76409 20.7148C9.65457 20.4331 9.52405 20.0097 9.48855 19.2296C9.45021 18.3862 9.44254 18.1328 9.44254 15.9962C9.44254 13.8595 9.45021 13.6075 9.48855 12.764C9.52422 11.9839 9.65457 11.5605 9.76409 11.2785C9.90911 10.9051 10.0828 10.6384 10.3628 10.3583C10.6429 10.0783 10.9096 9.90495 11.283 9.75959C11.565 9.64958 11.9886 9.51956 12.7687 9.48372C13.5068 9.45038 13.7928 9.44038 15.284 9.43871V9.44071ZM20.2728 10.7692C19.7427 10.7692 19.3126 11.1988 19.3126 11.729C19.3126 12.2591 19.7427 12.6892 20.2728 12.6892C20.8028 12.6892 21.2329 12.2591 21.2329 11.729C21.2329 11.199 20.8028 10.7689 20.2728 10.7689V10.7692ZM16.0018 11.8911C13.7327 11.8911 11.8929 13.7308 11.8929 16C11.8929 18.2691 13.7327 20.1081 16.0018 20.1081C18.271 20.1081 20.1101 18.2691 20.1101 16C20.1101 13.7308 18.271 11.8911 16.0018 11.8911ZM16.0018 13.3329C17.4747 13.3329 18.6689 14.5269 18.6689 16C18.6689 17.4729 17.4747 18.667 16.0018 18.667C14.5288 18.667 13.3348 17.4729 13.3348 16C13.3348 14.5269 14.5288 13.3329 16.0018 13.3329Z" fill="white"/>
<defs>
<radialGradient id="paint0_radial_9754_3358" cx="0" cy="0" r="1" gradientUnits="userSpaceOnUse" gradientTransform="translate(10.9251 28.5019) rotate(-90) scale(21.4745 19.9784)">
<stop stop-color="#FFDD55"/>
<stop offset="0.1" stop-color="#FFDD55"/>
<stop offset="0.5" stop-color="#FF543E"/>
<stop offset="1" stop-color="#C837AB"/>
</radialGradient>
<radialGradient id="paint1_radial_9754_3358" cx="0" cy="0" r="1" gradientUnits="userSpaceOnUse" gradientTransform="translate(1.53749 6.72605) rotate(78.6776) scale(9.5993 39.5787)">
<stop stop-color="#3771C8"/>
<stop offset="0.128" stop-color="#3771C8"/>
<stop offset="1" stop-color="#6600FF" stop-opacity="0"/>
</radialGradient>
</defs>
</svg>
