<svg width="25" height="24" viewBox="0 0 25 24" fill="none" xmlns="http://www.w3.org/2000/svg">
<path d="M3.49006 2.44819C3.49006 2.44819 2.0193 21.6796 3.04057 22.1549C4.06183 22.6302 22.4482 22.9794 22.886 22.1549C23.3239 21.3304 23.7617 4.28388 22.886 3.47316C22.0103 2.66273 4.23182 1.87922 3.49006 2.44819Z" fill="#FE6E56"/>
<path d="M0.914657 0.293448C0.60993 8.09833 0.304934 15.9029 0.000207129 23.7078C-0.00602838 23.8659 0.129526 24.0005 0.271316 24.0005C7.40881 24.0005 14.5463 24.0005 21.6838 24.0005C22.6988 24.0005 23.7139 24.0005 24.7289 24.0005C24.8756 24.0005 25 23.8664 25 23.7078C25 16.2424 25 8.77705 25 1.31139C25 1.14836 24.8756 1.02515 24.7289 1.01871C17.8647 0.72193 11.0005 0.425156 4.13625 0.128379C3.15266 0.08594 2.16935 0.0432075 1.18577 0.000768947C0.836848 -0.0141577 0.837391 0.571201 1.18577 0.586128C7.79053 0.871783 14.395 1.15744 20.9995 1.4428C21.7022 1.47324 22.4049 1.50368 23.1077 1.53383C23.469 1.54934 24.0614 1.69538 24.4106 1.59031C24.9604 1.42465 24.3599 1.72934 24.4575 1.39071C24.3591 1.73226 24.4575 2.28103 24.4575 2.63488C24.4575 6.6525 24.4575 10.6704 24.4575 14.688C24.4575 16.7895 24.4575 18.8909 24.4575 20.9926C24.4575 21.7714 24.2547 22.941 24.4575 23.7028C24.1606 22.5883 24.9748 23.6642 24.5901 23.4151C24.5079 23.3619 24.2864 23.428 24.191 23.4151C23.6892 23.3475 23.138 23.4151 22.6329 23.4151C20.9193 23.4151 19.2056 23.4151 17.4919 23.4151C13.3054 23.4151 9.11897 23.4151 4.9325 23.4151C3.62006 23.4151 2.30762 23.4151 0.995448 23.4151C0.773139 23.4151 0.50691 23.3712 0.28704 23.4151C0.921165 23.2887 0.406328 23.8896 0.547034 23.5913C0.598002 23.4833 0.541611 23.2814 0.563842 23.1625C0.867484 21.5361 0.701566 19.6328 0.766361 17.9786C0.865045 15.4554 0.963458 12.9319 1.06214 10.4087C1.1939 7.03708 1.32539 3.66541 1.45715 0.293448C1.47179 -0.0832301 0.929568 -0.082352 0.914657 0.293448Z" fill="black"/>
<path d="M19.9461 18.1922C18.3807 16.3097 16.8608 14.383 15.3893 12.4147C16.7914 10.7409 18.1939 9.06735 19.5961 7.39352C18.8313 6.95274 18.0667 6.51226 17.3019 6.07178C16.0337 7.61244 14.7137 9.10335 13.3454 10.5407C13.3454 10.5407 10.4654 7.61244 9.19713 6.07178C8.43233 6.51226 7.66781 6.95304 6.90301 7.39352C8.30518 9.06735 9.70763 10.7409 11.1098 12.4147C9.63796 14.383 8.11839 16.31 6.55273 18.1922H9.31154L13.2494 14.7948L16.795 18.8341L19.9461 18.1922Z" fill="black"/>
</svg>
