<svg width="32" height="32" viewBox="0 0 32 32" fill="none" xmlns="http://www.w3.org/2000/svg">
<rect width="32" height="32" rx="8" fill="white"/>
<path d="M20.339 13.1721C21.6524 14.1105 23.2614 14.6627 24.9992 14.6627V11.3203C24.6703 11.3204 24.3423 11.2861 24.0205 11.218V13.8489C22.2829 13.8489 20.6741 13.2967 19.3603 12.3584V19.1791C19.3603 22.5912 16.5929 25.357 13.1793 25.357C11.9056 25.357 10.7217 24.9722 9.73828 24.3121C10.8607 25.4592 12.426 26.1708 14.1577 26.1708C17.5715 26.1708 20.3391 23.4049 20.3391 19.9927V13.1721H20.339ZM21.5463 9.80014C20.8751 9.06719 20.4343 8.12 20.339 7.07284V6.64294H19.4115C19.645 7.97389 20.4412 9.11096 21.5463 9.80014ZM11.8974 21.6938C11.5224 21.2023 11.3197 20.6011 11.3206 19.9829C11.3206 18.4224 12.5864 17.1571 14.1481 17.1571C14.4391 17.157 14.7284 17.2015 15.0058 17.2895V13.8725C14.6817 13.8281 14.3545 13.8092 14.0275 13.8161V16.4758C13.75 16.3878 13.4605 16.3431 13.1694 16.3434C11.6077 16.3434 10.342 17.6086 10.342 19.1694C10.342 20.2729 10.9747 21.2284 11.8974 21.6938Z" fill="#FF004F"/>
<path d="M19.3603 12.3584C20.674 13.2967 22.2828 13.8488 24.0205 13.8488V11.2179C23.0505 11.0114 22.1918 10.5048 21.5462 9.80014C20.4411 9.11089 19.6449 7.97382 19.4115 6.64294H16.9754V19.9926C16.9699 21.5489 15.7062 22.809 14.1479 22.809C13.2296 22.809 12.4138 22.3715 11.8971 21.6938C10.9745 21.2284 10.3418 20.2729 10.3418 19.1694C10.3418 17.6088 11.6076 16.3435 13.1692 16.3435C13.4684 16.3435 13.7568 16.3901 14.0273 16.4759V13.8162C10.6737 13.8855 7.97656 16.6243 7.97656 19.9926C7.97656 21.6741 8.64821 23.1984 9.73831 24.3122C10.7217 24.9722 11.9056 25.3571 13.1793 25.3571C16.593 25.3571 19.3603 22.5911 19.3603 19.1791V12.3584H19.3603Z" fill="black"/>
<path d="M24.0225 11.2179V10.5065C23.1479 10.5079 22.2904 10.263 21.5483 9.80005C22.2052 10.5189 23.0702 11.0145 24.0225 11.2179ZM19.4135 6.64293C19.3913 6.51573 19.3742 6.3877 19.3623 6.25918V5.82928H15.9987V19.1791C15.9933 20.7351 14.7297 21.9953 13.1713 21.9953C12.7137 21.9953 12.2817 21.8867 11.8992 21.6938C12.4158 22.3715 13.2317 22.8089 14.1499 22.8089C15.7081 22.8089 16.972 21.5489 16.9774 19.9926V6.64293H19.4135ZM14.0295 13.8162V13.0589C13.7485 13.0205 13.4651 13.0012 13.1814 13.0014C9.76744 13.0013 7 15.7673 7 19.1791C7 21.3181 8.08765 23.2032 9.74042 24.312C8.65033 23.1983 7.97868 21.674 7.97868 19.9926C7.97868 16.6243 10.6757 13.8854 14.0295 13.8162Z" fill="#00F2EA"/>
</svg>
